<svg width="1440" height="900" viewBox="0 0 1440 900" fill="none" xmlns="http://www.w3.org/2000/svg">
<g clip-path="url(#clip0)">
<path d="M1083 0L938.559 58.5333C791.406 117.067 620.218 268.433 726.683 385.5C837.217 502.567 646.966 676.233 866 793.3C1080.97 910.367 1013.15 1027.43 866 1144.5C721.56 1261.57 1083 1287.73 866 1404.8C649 1521.87 432 1638.93 323.5 1697.47L215 1756H-2V1697.47C-2 1638.93 -2 1521.87 -2 1404.8C-2 1287.73 -2 1008.57 -2 891.5C-2 774.433 -2 819.467 -2 702.4C-2 585.333 -2 468.267 -2 351.2C-2 234.133 -2 117.067 -2 58.5333V0L1083 0Z" fill="url(#paint0_radial)"/>
</g>
<defs>
<radialGradient id="paint0_radial" cx="0" cy="0" r="1" gradientUnits="userSpaceOnUse" gradientTransform="translate(540.5 878) rotate(180) scale(542.5 878)">
<stop stop-color="#90D8F9"/>
<stop offset="1" stop-color="#49B6E8"/>
</radialGradient>
<clipPath id="clip0">
<rect width="900" height="1442" fill="white" transform="translate(1440) rotate(90)"/>
</clipPath>
</defs>
</svg>
