<svg width="482" height="512" viewBox="0 0 482 512" fill="none" xmlns="http://www.w3.org/2000/svg">
<g clip-path="url(#clip0)">
<path d="M241 22.0005C113.618 22.0005 10.3555 131.69 10.3555 267C10.3555 345.492 45.1084 415.357 99.1564 460.196H382.844C436.892 415.357 471.645 345.492 471.645 267C471.645 131.69 368.382 22.0005 241 22.0005Z" fill="#90D8F9"/>
<path d="M471.645 267C471.645 242.018 468.115 217.914 461.573 195.208C457.001 193.237 452.002 192.15 446.764 192.15C425.417 192.15 407.842 210.264 407.361 233.017C407.32 234.894 405.958 236.466 404.195 236.596C400.601 236.862 397.235 238.23 394.434 240.457C392.848 241.719 390.612 241.204 389.498 239.462C385.546 233.277 378.875 229.213 371.307 229.213C363.087 229.213 355.922 234.006 352.153 241.104C351.108 243.072 348.744 243.652 347.015 242.336C344.144 240.15 340.623 238.868 336.82 238.881C327.681 238.911 319.954 246.698 319.475 256.393C318.947 267.068 326.94 275.9 336.875 275.9H471.478C471.578 272.943 471.645 269.98 471.645 267Z" fill="#B1E4F9"/>
<path d="M251.61 121.777C246.749 121.761 242.248 123.4 238.581 126.193C236.371 127.875 233.35 127.133 232.014 124.618C227.197 115.547 218.04 109.421 207.537 109.421C197.866 109.421 189.339 114.615 184.289 122.519C182.866 124.745 180.009 125.403 177.981 123.792C174.403 120.945 170.1 119.197 165.508 118.858C163.255 118.691 161.513 116.682 161.462 114.283C160.872 86.3925 140.179 63.9685 114.414 62.1855C77.2151 88.1795 47.526 125.295 29.531 169.085H251.539C264.235 169.085 274.449 157.799 273.775 144.157C273.163 131.767 263.289 121.816 251.61 121.777Z" fill="#B1E4F9"/>
<path d="M144.6 287.241V223.779H173.968V276.602L144.6 287.241Z" fill="#FFDD40"/>
<path d="M334.134 287.241V223.779H304.766V276.602L334.134 287.241Z" fill="#FFDD40"/>
<path d="M164.024 256.967C154.497 260.419 144.6 252.896 144.6 242.204V287.241L173.967 276.602V242.205C173.968 248.879 169.971 254.813 164.024 256.967Z" fill="#FFB332"/>
<path d="M314.71 256.967C308.764 254.812 304.766 248.878 304.766 242.204V276.6L334.134 287.24V242.203C334.134 252.897 324.236 260.419 314.71 256.967Z" fill="#FFB332"/>
<path d="M292.208 204.696L304.766 224.84H334.134L346.693 204.696H292.208Z" fill="#FFC839"/>
<path d="M323.098 223.122L317.664 214.407C315.072 210.248 317.879 204.696 322.575 204.696H292.207L304.765 224.84H324.704C324.079 224.388 323.528 223.812 323.098 223.122Z" fill="#FFB332"/>
<path d="M319.45 115.57C315.551 115.57 312.39 112.213 312.39 108.07V81.8585C312.39 77.7155 315.551 74.3585 319.45 74.3585C323.35 74.3585 326.511 77.7155 326.511 81.8585V108.07C326.511 112.213 323.35 115.57 319.45 115.57Z" fill="#FFB332"/>
<path d="M319.45 64.0655C315.551 64.0655 312.39 60.7085 312.39 56.5655V35.8475C312.39 31.7055 315.551 28.3475 319.45 28.3475C323.35 28.3475 326.511 31.7055 326.511 35.8475V56.5665C326.511 60.7085 323.35 64.0655 319.45 64.0655Z" fill="#FFB332"/>
<path d="M219.799 259.508L103.788 300.851C100.307 302.091 97.9608 305.555 97.9608 309.456V459.195C137.275 492.255 186.965 512 241 512V255.831C233.793 255.831 226.632 257.073 219.799 259.508Z" fill="#1E2F59"/>
<path d="M378.213 300.851L262.202 259.508C255.369 257.073 248.208 255.831 241.001 255.831V512C254.739 512 268.194 510.717 281.271 508.271L323.701 495.765C345.62 486.816 365.933 474.423 384.04 459.196V309.456C384.039 305.556 381.693 302.091 378.213 300.851Z" fill="#3C5082"/>
<path d="M241 255.831V512C254.738 512 268.193 510.717 281.271 508.271L305.908 501.009C301.052 498.395 299.868 491.516 299.868 491.516C299.868 491.516 299.868 426.016 299.868 407.516C299.868 389.016 306.852 388.397 306.852 388.397C296.5 383.444 296.808 365.516 296.808 365.516C296.808 365.516 296.808 309.016 296.808 293.266C296.808 277.516 316.898 279 316.898 279L262.202 259.508C255.369 257.073 248.207 255.831 241 255.831Z" fill="#2D3C6B"/>
<path d="M384.039 400.65L359.656 394.09C355.872 393.075 352.035 395.505 351.078 399.52C350.12 403.535 352.409 407.615 356.189 408.631L384.038 416.123V400.65H384.039Z" fill="#FFDD40"/>
<path d="M241 310.343V340.073L384.039 384.781V357.994L241 310.343Z" fill="#FFDD40"/>
<path d="M241 310.343V340.073L296.809 357.516C296.809 350.525 296.809 339.815 296.809 328.935L241 310.343Z" fill="#FFB332"/>
<path d="M97.9608 357.994V384.781L241 340.073V310.343L97.9608 357.994Z" fill="#FFA219"/>
<path d="M328.48 394.326L277.961 380.476C275.68 379.851 273.458 381.68 273.458 384.181V509.573C293.657 506.551 313.019 500.763 331.183 492.558V398.032C331.183 396.286 330.07 394.762 328.48 394.326Z" fill="#FFDD40"/>
<path d="M299.869 491.515C299.869 491.515 299.869 426.015 299.869 407.515C299.869 389.019 306.85 388.396 306.85 388.396L277.961 380.474C275.68 379.849 273.458 381.678 273.458 384.179V509.572C285.102 507.83 296.466 505.163 307.485 501.649C301.304 499.839 299.869 491.515 299.869 491.515Z" fill="#FFB332"/>
<path d="M97.9608 416.137L241 376.548V361.047L97.9608 400.636V416.137Z" fill="#FFA219"/>
<path d="M301.651 134.328L305.833 113.58C306.716 109.197 310.321 106.07 314.492 106.07H324.409C328.578 106.07 332.184 109.197 333.068 113.58L337.249 134.328H301.651Z" fill="#FFC839"/>
<path d="M333.807 117.248C332.997 120.622 330.124 123.222 326.574 123.222H312.327C308.776 123.222 305.903 120.622 305.094 117.248L301.651 134.327H337.249L333.807 117.248Z" fill="#FFB332"/>
<path d="M286.009 157.773L294.263 138.744C295.522 135.841 298.256 133.982 301.265 133.982H337.636C340.645 133.982 343.379 135.841 344.638 138.744L352.893 157.773C353.983 160.286 352.254 163.153 349.65 163.153H289.252C286.646 163.153 284.918 160.286 286.009 157.773Z" fill="#FFDD40"/>
<path d="M316.943 142.865L318.731 138.744C319.99 135.841 322.724 133.982 325.733 133.982H301.264C298.255 133.982 295.522 135.841 294.262 138.744L286.009 157.773C284.919 160.286 286.647 163.153 289.252 163.153H329.173C319.35 163.153 312.833 152.342 316.943 142.865Z" fill="#FFC839"/>
<path d="M294.319 163.153H319.45V199.65H294.319V163.153Z" fill="#FFC839"/>
<path d="M319.45 163.153H344.581V199.65H319.45V163.153Z" fill="#FFDD40"/>
<path d="M347.858 170.653H291.042C287.143 170.653 283.982 167.296 283.982 163.153C283.982 159.01 287.143 155.653 291.042 155.653H347.858C351.757 155.653 354.919 159.01 354.919 163.153C354.919 167.296 351.757 170.653 347.858 170.653Z" fill="#FCEA9D"/>
<path d="M347.858 207.15H291.042C287.143 207.15 283.982 203.793 283.982 199.65C283.982 195.507 287.143 192.15 291.042 192.15H347.858C351.757 192.15 354.919 195.507 354.919 199.65C354.919 203.792 351.757 207.15 347.858 207.15Z" fill="#FCEA9D"/>
<path d="M311.224 163.153C311.224 159.01 314.385 155.653 318.285 155.653H291.042C287.143 155.653 283.982 159.01 283.982 163.153C283.982 167.296 287.143 170.653 291.042 170.653H318.285C314.385 170.653 311.224 167.296 311.224 163.153Z" fill="#FFDD40"/>
<path d="M311.224 199.649C311.224 195.506 314.385 192.149 318.285 192.149H291.042C287.143 192.149 283.982 195.506 283.982 199.649C283.982 203.792 287.143 207.149 291.042 207.149H318.285C314.385 207.15 311.224 203.792 311.224 199.649Z" fill="#FFDD40"/>
<path d="M319.45 89.8585C327.298 89.8585 333.661 81.7343 333.661 71.7125C333.661 61.6907 327.298 53.5665 319.45 53.5665C311.602 53.5665 305.24 61.6907 305.24 71.7125C305.24 81.7343 311.602 89.8585 319.45 89.8585Z" fill="#FFC839"/>
<path d="M321.647 77.4905C325.803 77.4905 329.173 73.1875 329.173 67.8795C329.173 62.5715 325.803 58.2685 321.647 58.2685C317.49 58.2685 314.12 62.5715 314.12 67.8795C314.12 73.1875 317.49 77.4905 321.647 77.4905Z" fill="#FFDD40"/>
<path d="M319.45 39.3474C306.214 39.3474 295.444 27.9084 295.444 13.8474C295.444 10.7514 295.965 7.72244 296.992 4.84344C298.374 0.971437 302.45 -0.976563 306.096 0.488437C309.743 1.95644 311.578 6.28644 310.196 10.1604C309.777 11.3344 309.565 12.5744 309.565 13.8484C309.565 19.6384 314 24.3484 319.45 24.3484C324.901 24.3484 329.335 19.6384 329.335 13.8484C329.335 12.5774 329.122 11.3354 328.704 10.1604C327.325 6.28544 329.164 1.95744 332.811 0.491437C336.46 -0.973563 340.533 0.979437 341.912 4.85444C342.936 7.73144 343.456 10.7564 343.456 13.8474C343.456 27.9074 332.686 39.3474 319.45 39.3474Z" fill="#FCEA9D"/>
<path d="M132.027 263.247C131.669 256.012 125.903 250.201 119.083 250.179C116.245 250.17 113.617 251.127 111.476 252.758C110.185 253.74 108.422 253.308 107.641 251.839C104.828 246.542 99.4812 242.965 93.3479 242.965C87.7005 242.965 82.7223 245.998 79.7729 250.613C78.9426 251.913 77.2734 252.297 76.0901 251.356C74.0002 249.694 71.4885 248.673 68.8064 248.475C67.4903 248.378 66.4736 247.205 66.4444 245.804C66.0848 228.825 52.9701 215.308 37.0396 215.308C27.2594 215.308 18.5975 220.38 13.2494 228.181C11.3524 240.825 10.3555 253.788 10.3555 267C10.3555 270.622 10.4543 274.219 10.6012 277.803H119.042C126.455 277.803 132.419 271.213 132.027 263.247Z" fill="#B1E4F9"/>
<path d="M332.763 35.0545C321.332 33.7595 324.816 22.6535 324.816 22.6535C323.269 23.7205 321.429 24.3475 319.45 24.3475C314 24.3475 309.565 19.6375 309.565 13.8475C309.565 12.5745 309.777 11.3335 310.196 10.1595C311.578 6.28549 309.742 1.95549 306.096 0.487491C302.45 -0.977509 298.374 0.970491 296.992 4.84249C295.965 7.72149 295.444 10.7505 295.444 13.8465C295.444 27.9075 306.214 39.3465 319.45 39.3465C324.371 39.3475 328.95 37.7635 332.763 35.0545Z" fill="#FFDD40"/>
<path d="M132.043 204.696L144.601 224.84H173.968L186.527 204.696H132.043Z" fill="#FFC839"/>
<path d="M162.933 223.122L157.499 214.407C154.907 210.248 157.714 204.696 162.41 204.696H132.042L144.6 224.84H164.539C163.914 224.388 163.363 223.812 162.933 223.122Z" fill="#FFB332"/>
<path d="M159.285 115.57C155.386 115.57 152.224 112.213 152.224 108.07V81.8585C152.224 77.7155 155.386 74.3585 159.285 74.3585C163.184 74.3585 166.346 77.7155 166.346 81.8585V108.07C166.346 112.213 163.184 115.57 159.285 115.57Z" fill="#FFB332"/>
<path d="M159.285 64.0655C155.386 64.0655 152.224 60.7085 152.224 56.5655V35.8475C152.224 31.7055 155.386 28.3475 159.285 28.3475C163.184 28.3475 166.346 31.7055 166.346 35.8475V56.5665C166.346 60.7085 163.184 64.0655 159.285 64.0655Z" fill="#FFB332"/>
<path d="M141.486 134.328L145.668 113.58C146.551 109.197 150.156 106.07 154.327 106.07H164.243C168.413 106.07 172.018 109.197 172.902 113.58L177.084 134.328H141.486Z" fill="#FFC839"/>
<path d="M173.641 117.248C172.832 120.622 169.959 123.222 166.409 123.222H152.161C148.611 123.222 145.737 120.622 144.929 117.248L141.486 134.327H177.084L173.641 117.248Z" fill="#FFB332"/>
<path d="M125.843 157.773L134.098 138.744C135.356 135.841 138.091 133.982 141.1 133.982H177.471C180.48 133.982 183.214 135.841 184.473 138.744L192.728 157.773C193.818 160.286 192.089 163.153 189.484 163.153H129.086C126.481 163.153 124.753 160.286 125.843 157.773Z" fill="#FFDD40"/>
<path d="M156.778 142.865L158.566 138.744C159.824 135.841 162.559 133.982 165.568 133.982H141.099C138.09 133.982 135.356 135.841 134.097 138.744L125.842 157.773C124.752 160.286 126.481 163.153 129.086 163.153H169.007C159.185 163.153 152.668 152.342 156.778 142.865Z" fill="#FFC839"/>
<path d="M134.154 163.153H159.285V199.65H134.154V163.153Z" fill="#FFC839"/>
<path d="M159.285 163.153H184.416V199.65H159.285V163.153Z" fill="#FFDD40"/>
<path d="M187.692 170.653H130.876C126.977 170.653 123.816 167.296 123.816 163.153C123.816 159.01 126.977 155.653 130.876 155.653H187.692C191.591 155.653 194.752 159.01 194.752 163.153C194.752 167.296 191.592 170.653 187.692 170.653Z" fill="#FCEA9D"/>
<path d="M187.692 207.15H130.876C126.977 207.15 123.816 203.793 123.816 199.65C123.816 195.507 126.977 192.15 130.876 192.15H187.692C191.591 192.15 194.752 195.507 194.752 199.65C194.752 203.792 191.592 207.15 187.692 207.15Z" fill="#FCEA9D"/>
<path d="M151.059 163.153C151.059 159.01 154.22 155.653 158.12 155.653H130.877C126.978 155.653 123.817 159.01 123.817 163.153C123.817 167.296 126.978 170.653 130.877 170.653H158.12C154.219 170.653 151.059 167.296 151.059 163.153Z" fill="#FFDD40"/>
<path d="M151.059 199.649C151.059 195.506 154.22 192.149 158.12 192.149H130.877C126.978 192.149 123.817 195.506 123.817 199.649C123.817 203.792 126.978 207.149 130.877 207.149H158.12C154.219 207.15 151.059 203.792 151.059 199.649Z" fill="#FFDD40"/>
<path d="M159.285 89.8585C167.133 89.8585 173.496 81.7343 173.496 71.7125C173.496 61.6907 167.133 53.5665 159.285 53.5665C151.437 53.5665 145.074 61.6907 145.074 71.7125C145.074 81.7343 151.437 89.8585 159.285 89.8585Z" fill="#FFC839"/>
<path d="M161.481 77.4905C165.638 77.4905 169.008 73.1875 169.008 67.8795C169.008 62.5715 165.638 58.2685 161.481 58.2685C157.325 58.2685 153.955 62.5715 153.955 67.8795C153.955 73.1875 157.325 77.4905 161.481 77.4905Z" fill="#FFDD40"/>
<path d="M159.285 39.3474C146.048 39.3474 135.279 27.9084 135.279 13.8474C135.279 10.7514 135.8 7.72244 136.827 4.84344C138.209 0.971437 142.285 -0.976563 145.931 0.488437C149.577 1.95644 151.413 6.28644 150.031 10.1604C149.612 11.3344 149.4 12.5744 149.4 13.8484C149.4 19.6384 153.834 24.3484 159.285 24.3484C164.736 24.3484 169.17 19.6384 169.17 13.8484C169.17 12.5774 168.957 11.3354 168.539 10.1604C167.16 6.28544 168.998 1.95744 172.645 0.491437C176.294 -0.973563 180.368 0.979437 181.747 4.85444C182.771 7.73144 183.291 10.7564 183.291 13.8474C183.291 27.9074 172.521 39.3474 159.285 39.3474Z" fill="#FCEA9D"/>
<path d="M172.597 35.0545C161.167 33.7595 164.651 22.6535 164.651 22.6535C163.104 23.7205 161.264 24.3475 159.285 24.3475C153.834 24.3475 149.4 19.6375 149.4 13.8475C149.4 12.5745 149.613 11.3335 150.031 10.1595C151.413 6.28549 149.577 1.95549 145.931 0.487491C142.285 -0.977509 138.209 0.970491 136.827 4.84249C135.8 7.72149 135.279 10.7505 135.279 13.8465C135.279 27.9075 146.048 39.3465 159.285 39.3465C164.206 39.3475 168.785 37.7635 172.597 35.0545Z" fill="#FFDD40"/>
</g>
<defs>
<clipPath id="clip0">
<rect width="482" height="512" fill="white"/>
</clipPath>
</defs>
</svg>
